<?xml version="1.0" encoding="UTF-8"?>
<svg width="234px" height="77px" viewBox="0 0 234 77" version="1.1" xmlns="http://www.w3.org/2000/svg" xmlns:xlink="http://www.w3.org/1999/xlink">
    <title>hotmart</title>
    <g id="Page-1" stroke="none" stroke-width="1" fill="none" fill-rule="evenodd">
        <g id="hotmart" fill-rule="nonzero">
            <path d="M67.6298273,63.27 L67.6298273,29.47 C67.6271823,29.3869511 67.6589372,29.3064537 67.7176954,29.2476954 C67.7764537,29.1889372 67.8569511,29.1571823 67.94,29.1598273 L74.43,29.1598273 C74.6012083,29.1598273 74.74,29.2987917 74.74,29.47 L74.74,41.65 L74.84,41.65 C76.6091527,39.5408661 79.2599003,38.3763117 82.01,38.5 C87.12,38.5 88.76,41.84 88.76,46.27 L88.76,63.27 C88.76,63.4412083 88.6212083,63.58 88.45,63.58 L81.96,63.58 C81.7887917,63.58 81.65,63.4412083 81.65,63.27 L81.65,46.9 C81.65,44.98 79.65,44.39 78.37,44.39 C77.09,44.39 74.74,45.23 74.74,47.63 L74.74,63.27 C74.74,63.4412083 74.6012083,63.58 74.43,63.58 L67.94,63.58 C67.7687917,63.58 67.6298273,63.4412083 67.6298273,63.27 L67.6298273,63.27 Z" id="Path" fill="#073D4F"></path>
            <path d="M119.45,56.6 L119.45,44.95 L116.45,44.95 C116.278792,44.95 116.14,44.8112083 116.14,44.64 L116.14,40.46 C116.141456,40.3285935 116.225608,40.2123837 116.35,40.17 L120.35,39 L122.48,32.33 C122.522386,32.2417816 122.603942,32.1787605 122.7,32.1598273 L126.2,32.1598273 C126.283049,32.1571823 126.363546,32.1889372 126.422305,32.2476954 C126.481063,32.3064537 126.512818,32.3869511 126.51,32.47 L126.51,39.05 L131.76,39.05 C131.842217,39.05 131.921067,39.0826606 131.979203,39.1407969 C132.037339,39.1989332 132.07,39.2777829 132.07,39.36 L132.07,44.7 C132.07,44.7813283 132.037069,44.8591899 131.978626,44.9157474 C131.920184,44.9723048 131.841283,45.002711 131.76,45 L126.51,45 L126.51,55.86 C126.51,56.99 127.15,57.68 128.72,57.68 L131.72,57.68 C131.891208,57.68 132.03,57.8187917 132.03,57.99 C132.03,58.07 132.03,61.75 132.03,62.68 C132.02733,62.8079655 131.948664,62.9220304 131.83,62.97 C130.261863,63.6920627 128.556389,64.067267 126.83,64.07 C121.6,64.07 119.45,60.97 119.45,56.6 Z" id="Path" fill="#073D4F"></path>
            <path d="M221.08,56.6 L221.08,44.95 L218.08,44.95 C217.908792,44.95 217.77,44.8112083 217.77,44.64 L217.77,40.46 C217.771456,40.3285935 217.855608,40.2123837 217.98,40.17 L221.98,39 L224.11,32.33 C224.152384,32.2056078 224.268593,32.1214559 224.4,32.1198273 L227.9,32.1198273 C227.983049,32.1171823 228.063546,32.1489372 228.122305,32.2076954 C228.181063,32.2664537 228.212818,32.3469511 228.21,32.43 L228.21,39.01 L233.46,39.01 C233.542217,39.01 233.621067,39.0426606 233.679203,39.1007969 C233.737339,39.1589332 233.77,39.2377829 233.77,39.32 L233.77,44.66 C233.77,44.7413283 233.737069,44.8191899 233.678626,44.8757474 C233.620184,44.9323048 233.541283,44.962711 233.46,44.96 L228.21,44.96 L228.21,55.86 C228.21,56.99 228.85,57.68 230.42,57.68 L233.42,57.68 C233.591208,57.68 233.73,57.8187917 233.73,57.99 C233.73,58.07 233.73,61.75 233.73,62.68 C233.72733,62.8079655 233.648664,62.9220304 233.53,62.97 C231.961863,63.6920627 230.256389,64.067267 228.53,64.07 C223.23,64.07 221.08,60.97 221.08,56.6 Z" id="Path" fill="#073D4F"></path>
            <path d="M136.38,63.27 L136.38,39.27 C136.38,39.0987917 136.518792,38.96 136.69,38.96 L142.55,38.96 C142.681407,38.9614559 142.797616,39.0456078 142.84,39.17 L143.52,41.61 L143.62,41.61 C145.372848,39.5021882 148.01137,38.3365017 150.75,38.46 C154.24,38.46 155.92,40.03 156.86,42.46 L157.06,42.46 C158.72136,39.8346638 161.666947,38.3064731 164.77,38.46 C169.88,38.46 171.52,41.8 171.52,46.23 L171.52,63.23 C171.52,63.4012083 171.381208,63.54 171.21,63.54 L164.7,63.54 C164.528792,63.54 164.39,63.4012083 164.39,63.23 L164.39,47.01 C164.39,45.09 162.58,44.35 161.3,44.35 C159.82,44.35 157.62,45.29 157.52,47.45 L157.52,63.27 C157.522818,63.3530489 157.491063,63.4335463 157.432305,63.4923046 C157.373546,63.5510628 157.293049,63.5828177 157.21,63.5801727 L150.68,63.5801727 C150.512709,63.5746007 150.379913,63.4373779 150.38,63.27 L150.38,47.01 C150.38,45.09 148.46,44.35 147.06,44.35 C145.152349,44.3378989 143.580216,45.8436034 143.51,47.75 L143.51,63.27 C143.510087,63.4373779 143.377291,63.5746007 143.21,63.5801727 L136.7,63.5801727 C136.616064,63.582709 136.534621,63.5512483 136.474303,63.4928158 C136.413986,63.4343833 136.38,63.3539794 136.38,63.27 Z" id="Path" fill="#073D4F"></path>
            <path d="M175.81,44.4 L175.81,39.94 C175.815585,39.794849 175.918236,39.6716679 176.06,39.64 C179.183431,38.9615162 182.364563,38.583129 185.56,38.51 C191.85,38.51 195.56,40.03 195.56,46.82 L195.56,63.28 C195.56,63.4512083 195.421208,63.59 195.25,63.59 L189.04,63.59 C188.901922,63.5892082 188.782217,63.4942697 188.75,63.36 L188.08,60.93 L188.36,60.93 C186.59,63.39 184.24,64.08 181.36,64.08 C176.74,64.08 174.28,60.49 174.28,56.26 C174.28,49.87 178.95,48.59 182.44,48.59 L188.44,48.59 L188.44,46.97 C188.44,44.97 186.94,44.52 181.24,44.52 C178.83,44.52 176.24,44.71 176.13,44.71 C175.957102,44.7100844 175.815403,44.572814 175.81,44.4 Z M188.43,52.96 L184.53,52.96 C182.46,52.96 181.12,53.75 181.12,55.96 C181.12,58.34 182.83,58.88 184.47,58.88 C185.547706,58.9383849 186.599399,58.5357408 187.36257,57.7725699 C188.125741,57.009399 188.528385,55.9577063 188.47,54.88 L188.47,52.88 L188.43,52.96 Z" id="Shape" fill="#073D4F"></path>
            <path d="M199.7,63.27 L199.7,39.27 C199.7,39.1026221 199.832709,38.9653993 200,38.96 L205.8,38.96 C205.947974,38.9579326 206.07535,39.064079 206.1,39.21 L206.79,42.94 L206.89,42.94 C208.369738,40.1332502 211.307781,38.4029406 214.48,38.47 C214.651208,38.47 214.79,38.6087917 214.79,38.78 L214.79,45.46 C214.79,45.6312083 214.651208,45.77 214.48,45.77 L212.82,45.77 C208.35,45.77 206.82,47.56 206.82,49.77 L206.82,63.23 C206.820087,63.3973779 206.687291,63.5346007 206.52,63.54 L200.03,63.54 C199.865743,63.5519461 199.720817,63.4333696 199.7,63.27 Z" id="Path" fill="#073D4F"></path>
            <path d="M91.78,51.29 C91.78,43.47 94.83,38.51 103.48,38.51 C112.13,38.51 115.23,43.51 115.23,51.29 C115.23,59.07 112.18,64.07 103.48,64.07 C94.78,64.07 91.78,59.16 91.78,51.29 Z M99.46,51.29 C99.46,55.52 100.08,58.11 103.46,58.11 C106.84,58.11 107.53,55.52 107.53,51.29 C107.53,47.06 106.9,44.51 103.46,44.51 C100.02,44.51 99.46,47.06 99.46,51.29 L99.46,51.29 Z" id="Shape" fill="#073D4F"></path>
            <path d="M54.28,48.85 C54.62,42.16 52.28,31.22 46.72,22.27 C46.57,22.04 46.32,22.13 46.37,22.37 C46.74,23.73 46.83,26.2 44.67,26.05 C40.83,25.79 44.8,17.57 36.37,11.87 C36.3051845,11.8087275 36.2052721,11.8041615 36.1351381,11.8592667 C36.0650042,11.914372 36.045802,12.0125281 36.09,12.09 C36.67,13.19 37.01,16.62 35.68,17.79 C34.61,18.73 32.68,18.48 30.75,15.39 C28.1317359,11.0421217 28.2053674,5.58564463 30.94,1.31 C31.1,1.05 30.88,0.95 30.7,1.01 C19.1,4.84 16.78,18.52 14.31,23.5 C13.9,24.34 13.54,24.77 12.83,24.73 C10.72,24.59 12.24,20.08 12.97,18.51 C13.0028537,18.4314758 12.9762117,18.3406727 12.9061398,18.2923472 C12.8360679,18.2440218 12.7417241,18.2513864 12.68,18.31 C5.9094187,25.7506222 1.57873761,35.0854907 0.27,45.06 C0.27,44.83 0.17,45.88 0.11,46.65 L0.11,46.65 C0.11,46.95 0.09,47.2533333 0.05,47.56 C0.05,47.92 0.05,48.28 0.05,48.65 C-0.0742637509,63.6417693 11.9782307,75.8957354 26.97,76.0199994 C41.9617693,76.1442635 54.2157356,64.0917693 54.34,49.1 C54.29,49.01 54.28,48.93 54.28,48.85 Z M27.04,61.4602015 C21.9443213,61.4314739 17.3683307,58.3340974 15.4483389,53.613887 C13.5283471,48.8936766 14.6430206,43.4815667 18.2719719,39.9042118 C21.9009231,36.326857 27.3284393,35.2897942 32.0206733,37.2771782 C36.7129072,39.2645623 39.7444423,43.8844353 39.7,48.98 C39.6394915,55.9176488 33.9778039,61.4988384 27.04,61.4602015 L27.04,61.4602015 Z" id="Shape" fill="#F04E23"></path>
        </g>
    </g>
</svg>